<svg width="20" height="20" viewBox="0 0 20 20" fill="none" xmlns="http://www.w3.org/2000/svg">
<path fill-rule="evenodd" clip-rule="evenodd" d="M9.58317 2.29297C5.55609 2.29297 2.2915 5.55756 2.2915 9.58464C2.2915 13.6117 5.55609 16.8763 9.58317 16.8763C13.6102 16.8763 16.8748 13.6117 16.8748 9.58464C16.8748 5.55756 13.6102 2.29297 9.58317 2.29297ZM1.0415 9.58464C1.0415 4.8672 4.86574 1.04297 9.58317 1.04297C14.3006 1.04297 18.1248 4.8672 18.1248 9.58464C18.1248 11.7184 17.3424 13.6694 16.0489 15.1665L18.7751 17.8927C19.0192 18.1368 19.0192 18.5325 18.7751 18.7766C18.531 19.0207 18.1353 19.0207 17.8912 18.7766L15.165 16.0504C13.668 17.3439 11.7169 18.1263 9.58317 18.1263C4.86574 18.1263 1.0415 14.3021 1.0415 9.58464Z" fill="#A3A3A3"/>
</svg>
